<svg xmlns="http://www.w3.org/2000/svg" version="1.1" xmlns:xlink="http://www.w3.org/1999/xlink" xmlns:svgjs="http://svgjs.dev/svgjs" width="100%" height="100%" viewBox="0 0 1000 600"><rect width="1000" height="600" x="0" y="0" fill="#533549"/><g><rect width="333.3333333333333" height="333.3333333333333" y="157.78040343093872" fill="#f6b042" transform="matrix(0.9221132482339671,0,0,0.9221132482339671,0,0.8230521525509715)" x="135.5581817626953"/><path d="M220.6641046198729 387.53118804598205L235.41176817127473 261.9797861768232L213.4024223768822 259.5405338403746L213.4024223768822 249.44707589644938L266.89774947968596 249.44707589644938L295.35569340491963 340.2881973917765L302.0285906011813 365.9424029992531L308.08466536753645 340.2881973917765L336.3463476105271 249.44707589644938L389.42111396566725 249.44707589644938L389.42111396566725 259.5405338403746L367.2155064890318 261.9797861768232L383.36503919931215 387.3349263637391L400.9444784516486 389.5498796347672L400.9444784516486 399.4470758964494L342.7949457413682 399.4470758964494L342.7949457413682 389.5498796347672L361.1594317226766 387.53118804598205L352.07531957314393 296.886328232898L347.8416747133308 257.9424029992531L339.37438499370467 287.01716935439333L305.64541303108786 392.57791701794474L292.52391770398503 392.57791701794474L259.8323289189383 295.8769824385055L247.91644106847102 257.74614131701014L244.29961863856448 296.886328232898L236.22485228342427 387.53118804598205L256.1874691058542 389.5498796347672L256.1874691058542 399.4470758964494L203.50522611519997 399.4470758964494L203.50522611519997 389.5498796347672L220.6641046198729 387.53118804598205Z " fill="#533549" transform="matrix(0.9221132482339671,0,0,0.9221132482339671,0,0.8230521525509715)"/><path d="M620.5259829275419 399.4470733931847Q599.2536535980414 399.4470733931847 583.805239624818 390.0139710555527Q568.3568256515946 380.55352639230443 560.2908395947788 363.92939241757904Q552.2248535379631 347.2779161172373 552.2248535379631 326.2243253926674L552.2248535379631 326.2243253926674Q552.2248535379631 301.9990248966037 561.7673251780603 284.69133278147024Q571.3097968181576 267.3562983407204 588.2346963746626 258.388015538566Q605.1595959311676 249.44707506202784 626.8147178192967 249.44707506202784L626.8147178192967 249.44707506202784Q646.7199308679809 249.44707506202784 672.6951402034894 255.5444136744682L672.6951402034894 255.5444136744682L670.9178890384283 289.6129513924087L656.9459606484863 289.6129513924087L652.2157383168621 265.98918205990424Q649.4541634296133 263.80179601059825 642.8646629560792 261.8331485662229Q636.2751624825449 259.8645011218475 625.2562052591661 259.8645011218475L625.2562052591661 259.8645011218475Q610.8741419849794 259.8645011218475 599.8551847616005 266.97350578209193Q588.8362275382217 274.05516811672 582.629519623316 288.0270965066619Q576.4228117084103 301.9990248966037 576.4228117084103 321.8768956196718L576.4228117084103 321.8768956196718Q576.4228117084103 340.19625378260923 581.4537996218141 355.343902174053Q586.4574452096015 370.5188928911133 596.7928442925722 379.67857197258206Q607.1282433755429 388.81090872843447 622.1118378132887 388.81090872843447L622.1118378132887 388.81090872843447Q631.5449401509208 388.81090872843447 640.0210610919814 386.5688380278958Q648.4698397074258 384.29942500174093 653.0086657597355 380.55352639230443L653.0086657597355 380.55352639230443L653.0086657597355 336.64175145248703L628.2091764257292 334.67310400811164L628.2091764257292 323.07995794679005L685.6827448712436 323.07995794679005L685.6827448712436 334.67310400811164L674.2809950892362 336.45035517317274L674.2809950892362 389.4124398919936Q669.9335653162406 389.6038361713079 659.8989318150494 392.74820361718525L659.8989318150494 392.74820361718525Q649.672902034544 395.9199133886789 640.5952499299242 397.6698222281236Q631.5449401509208 399.4470733931847 620.5259829275419 399.4470733931847L620.5259829275419 399.4470733931847ZM715.2124565368741 385.6665412825571L715.2124565368741 263.22760717265544L699.873411866116 260.8488248440352L699.873411866116 251.00558762215832L726.0400174809387 251.00558762215832Q733.1216798155667 251.00558762215832 740.0119458708805 250.4313987842155L740.0119458708805 250.4313987842155Q750.6481105356308 249.6384713413421 760.1085551988791 249.6384713413421L760.1085551988791 249.6384713413421Q788.6539431423221 249.82986762065636 800.4658278085742 260.27463600609235Q812.2777124748266 270.69206206591207 812.2777124748266 291.7729951160983L812.2777124748266 291.7729951160983Q812.2777124748266 307.5221746711013 804.9773115352679 319.14266305803926Q797.7042529213255 330.73580911936097 784.7986752304203 336.8604900574177Q771.9204398651314 342.95782866985803 755.1869365879406 342.95782866985803L755.1869365879406 342.95782866985803Q749.4723905341289 342.95782866985803 743.5664482010027 342.6570630880784Q737.6605058678766 342.3562975062989 736.2933895870603 342.1649012269846L736.2933895870603 342.1649012269846L736.2933895870603 385.4751450032428L763.2529226447565 387.6351887269325L763.2529226447565 397.28702966949504L698.8890881439283 397.28702966949504L698.8890881439283 387.6351887269325L715.2124565368741 385.6665412825571ZM736.2933895870603 331.3373402829201Q741.7891970359417 332.3216640051078 755.1869365879406 332.3216640051078L755.1869365879406 332.3216640051078Q770.7447198636294 332.3216640051078 780.478587783041 322.8612193418594Q790.2124557024525 313.4281170042275 790.2124557024525 291.9643913954126L790.2124557024525 291.9643913954126Q790.2124557024525 275.0394918389077 781.7636770870082 267.6570639225Q773.2875561459476 260.27463600609235 755.378332867255 260.27463600609235L755.378332867255 260.27463600609235Q749.0895979755003 260.27463600609235 741.9805933152559 261.06756344896576L741.9805933152559 261.06756344896576Q737.6605058678766 261.45035600759434 736.2933895870603 261.45035600759434L736.2933895870603 261.45035600759434L736.2933895870603 331.3373402829201ZM874.2901069726507 385.6665412825571L874.2901069726507 261.45035600759434L840.4129655340246 262.6260760090963L833.5226994787108 303.7762760616648L820.5350948109566 303.7762760616648L823.8982008617645 251.00558762215832L946.5285312509804 251.00558762215832L948.9073135796007 303.7762760616648L936.4938977497893 303.7762760616648L929.9864242531039 262.6260760090963L895.9452288607799 261.45035600759434L895.9452288607799 385.6665412825571L923.8890856406636 387.6351887269325L923.8890856406636 397.28702966949504L848.697690195771 397.28702966949504L848.697690195771 387.6351887269325L874.2901069726507 385.6665412825571Z " fill="#f6b042" transform="matrix(0.9221132482339671,0,0,0.9221132482339671,0,0.8230521525509715)"/></g></svg>